<svg width="32" height="32" viewBox="0 0 32 32" fill="none" xmlns="http://www.w3.org/2000/svg">
<path d="M11.3049 17.6538C11.3049 17.2529 10.9797 16.9282 10.5786 16.9282H8.04393C7.64321 16.9282 7.31799 17.2529 7.31799 17.6538V20.1881C7.31799 20.5895 7.64321 20.9143 8.04393 20.9143H10.5786C10.9797 20.9143 11.3049 20.5895 11.3049 20.1881V17.6538Z" fill="#7764CA"/>
<path d="M17.6389 17.6538C17.6389 17.2529 17.3136 16.9282 16.9133 16.9282H14.3783C13.9776 16.9282 13.6523 17.2529 13.6523 17.6538V20.1881C13.6523 20.5895 13.9776 20.9143 14.3783 20.9143H16.9133C17.3136 20.9143 17.6389 20.5895 17.6389 20.1881V17.6538Z" fill="#7764CA"/>
<path d="M23.9736 17.6538C23.9736 17.2529 23.6483 16.9282 23.2477 16.9282H20.7131C20.3118 16.9282 19.9867 17.2529 19.9867 17.6538V20.1881C19.9867 20.5895 20.3118 20.9143 20.7131 20.9143H23.2477C23.6483 20.9143 23.9736 20.5895 23.9736 20.1881V17.6538Z" fill="#7764CA"/>
<path d="M11.3049 23.9884C11.3049 23.5869 10.9797 23.2625 10.5786 23.2625H8.04393C7.64321 23.2625 7.31799 23.5869 7.31799 23.9884V26.5223C7.31799 26.9234 7.64321 27.2482 8.04393 27.2482H10.5786C10.9797 27.2482 11.3049 26.9233 11.3049 26.5223V23.9884Z" fill="#7764CA"/>
<path d="M17.6389 23.9884C17.6389 23.5869 17.3136 23.2625 16.9133 23.2625H14.3783C13.9776 23.2625 13.6523 23.5869 13.6523 23.9884V26.5223C13.6523 26.9234 13.9776 27.2482 14.3783 27.2482H16.9133C17.3136 27.2482 17.6389 26.9233 17.6389 26.5223V23.9884Z" fill="#7764CA"/>
<path d="M23.9736 23.9884C23.9736 23.5869 23.6483 23.2625 23.248 23.2625H20.7131C20.3118 23.2625 19.9867 23.5869 19.9867 23.9884V26.5223C19.9867 26.9234 20.3118 27.2482 20.7131 27.2482H23.248C23.6483 27.2482 23.9736 26.9233 23.9736 26.5223V23.9884Z" fill="#7764CA"/>
<path d="M28.5053 3.56224V7.43317C28.5053 9.18279 27.0859 10.5927 25.3366 10.5927H23.3378C21.5883 10.5927 20.1501 9.18279 20.1501 7.43317V3.54834H11.1404V7.43317C11.1404 9.18279 9.70234 10.5927 7.95312 10.5927H5.95381C4.20451 10.5927 2.78523 9.18279 2.78523 7.43317V3.56224C1.25633 3.60832 0 4.87344 0 6.42844V29.1138C0 30.6981 1.28406 31.9993 2.86829 31.9993H28.4222C30.0042 31.9993 31.2906 30.6954 31.2906 29.1138V6.42844C31.2906 4.87344 30.0342 3.60832 28.5053 3.56224ZM27.577 27.7012C27.577 28.3858 27.0218 28.9412 26.337 28.9412H4.89899C4.21408 28.9412 3.65898 28.3858 3.65898 27.7012V15.9833C3.65898 15.2985 4.21402 14.743 4.89899 14.743H26.3368C27.0218 14.743 27.5768 15.2985 27.5768 15.9833L27.577 27.7012Z" fill="#7764CA"/>
<path d="M5.9469 8.51832H7.92412C8.52425 8.51832 9.01086 8.03243 9.01086 7.43229V1.08641C9.01086 0.486208 8.52425 0 7.92412 0H5.9469C5.3467 0 4.86017 0.486208 4.86017 1.08641V7.43229C4.86017 8.03243 5.3467 8.51832 5.9469 8.51832Z" fill="#7764CA"/>
<path d="M23.3125 8.51832H25.2896C25.8894 8.51832 26.376 8.03243 26.376 7.43229V1.08641C26.376 0.486208 25.8894 0 25.2896 0H23.3125C22.7123 0 22.2258 0.486208 22.2258 1.08641V7.43229C22.2258 8.03243 22.7123 8.51832 23.3125 8.51832Z" fill="#7764CA"/>
</svg>
